<mxfile host="app.diagrams.net" modified="2024-07-08T03:49:08.872Z" agent="Mozilla/5.0 (Windows NT 10.0; Win64; x64) AppleWebKit/537.36 (KHTML, like Gecko) Chrome/126.0.0.0 Safari/537.36" version="24.6.4" etag="C0jFj6tSRE1VzHi63AG2" type="github">
  <diagram name="Page-1" id="5MO3OT5Q2BpamrI3CBxw">
    <mxGraphModel>
      <root>
        <mxCell id="0" />
        <mxCell id="1" parent="0" />
      </root>
    </mxGraphModel>
  </diagram>
</mxfile>
